<svg xmlns="http://www.w3.org/2000/svg" viewBox="0 0 64 64" role="img" aria-labelledby="title">
  <title>Udoy Leaf</title>
  <defs>
    <linearGradient id="leafGradient" x1="18%" x2="82%" y1="16%" y2="84%">
      <stop offset="0%" stop-color="#6ba876" />
      <stop offset="55%" stop-color="#4f8a5d" />
      <stop offset="100%" stop-color="#c46a20" />
    </linearGradient>
  </defs>
  <rect width="64" height="64" rx="16" fill="#f2f6ec" />
  <path
    fill="url(#leafGradient)"
    d="M46 18c-13-2-24 6-29 18-2.6 6.2-2.4 12.4-.4 18.7a1.5 1.5 0 0 0 1.7 1l7.8-2c8.6-2.2 15.4-8.8 18.2-17.2C46.7 30.3 46.5 23.7 46 18Z"
  />
  <path
    fill="#e3e7dc"
    d="M24.5 45.6c6.2-1.6 11.6-6.5 14.4-13.3.6-1.4-1.2-2.5-2.2-1.3-4.3 5-9.8 8-15.5 9.2-1.7.3-1.5 2.9.3 2.4Z"
  />
  <circle cx="21" cy="19" r="5" fill="#ffffff" fill-opacity="0.65" />
</svg>
