<svg xmlns="http://www.w3.org/2000/svg" viewBox="0 0 64 64" role="img" aria-labelledby="title">
  <title>Udoy Leaf</title>
  <defs>
    <linearGradient id="leafGradient" x1="12%" x2="88%" y1="18%" y2="82%">
      <stop offset="0%" stop-color="#529d75" />
      <stop offset="50%" stop-color="#74bc92" />
      <stop offset="100%" stop-color="#cc7d33" />
    </linearGradient>
  </defs>
  <rect width="64" height="64" rx="16" fill="#16261c" />
  <path
    fill="url(#leafGradient)"
    d="M46 18C33 16 22 24 17 36c-2.6 6.2-2.4 12.4-.4 18.7a1.5 1.5 0 0 0 1.7 1l7.8-2c8.6-2.2 15.4-8.8 18.2-17.2C46.7 30.3 46.5 23.7 46 18Z"
  />
  <path
    fill="#f1e9de"
    d="M24.5 45.6c6.2-1.6 11.6-6.5 14.4-13.3.6-1.4-1.2-2.5-2.2-1.3-4.3 5-9.8 8-15.5 9.2-1.7.3-1.5 2.9.3 2.4Z"
  />
</svg>
